<svg xmlns="http://www.w3.org/2000/svg" viewBox="0 0 100 120" role="img" aria-labelledby="title">
  <title>Family and friends marker</title>
  <path fill="#FFFFFF" d="M50 2A48 48 0 0 1 84.9 82.9L50 120 15.1 82.9A48 48 0 0 1 50 2Z"/>
  <path fill="#F5C542" d="M50 6A44 44 0 0 1 82.8 79.3L50 116 17.2 79.3A44 44 0 0 1 50 6Z"/>
  <path fill="#FFFFFF" d="M28.5 48.8 50 29.5 71.5 48.8H64V72H36V48.8H28.5Z"/>
  <path fill="#F5C542" d="M43.5 56.8c2-2 5.2-1.3 6.5 1.4 1.3-2.7 4.5-3.4 6.5-1.4 2.5 2.5 1.3 5.8-.8 7.8L50 70.4l-5.7-5.8c-2.1-2-3.3-5.3-.8-7.8Z"/>
</svg>
