<svg xmlns="http://www.w3.org/2000/svg" viewBox="0 0 100 120" role="img" aria-labelledby="title">
  <title>Treat marker</title>
  <path fill="#FFFFFF" d="M50 2A48 48 0 0 1 84.9 82.9L50 120 15.1 82.9A48 48 0 0 1 50 2Z"/>
  <path fill="#F5C542" d="M50 6A44 44 0 0 1 82.8 79.3L50 116 17.2 79.3A44 44 0 0 1 50 6Z"/>
  <path fill="none" stroke="#FFFFFF" stroke-width="4" stroke-linecap="round" stroke-linejoin="round" d="M41.5 41c0-5.8 3.8-10.5 8.5-10.5s8.5 4.7 8.5 10.5"/>
  <path fill="none" stroke="#FFFFFF" stroke-width="4" stroke-linecap="round" stroke-linejoin="round" d="M38.5 53c0-7 5.2-12 11.5-12s11.5 5 11.5 12c0 3.8-2.8 6.8-6.5 6.8H45c-3.7 0-6.5-3-6.5-6.8Z"/>
  <path fill="none" stroke="#FFFFFF" stroke-width="4" stroke-linecap="round" stroke-linejoin="round" d="M40 61h20L50 79 40 61Z"/>
</svg>
